

With: Barbara Hershey, Mia Farrow en Michael Caine

During a Thanksgiving Day party we make aquaintance with a numerous and problematic family. The leading characters are three sisters: Lee, the woman of Frederick, an old misanthrope painter; Holly, who dreams of becoming a writer, or an actress, or who knows who...; Hannah, famous actress, beautiful, intelligent, good mother, good wife, good sister, in short perfect, the pivot of the family. The balance begins to break up when Hannah's husband, Elliot, falls in love with Lee, who leaves Frederick. Holly goes through a deep crisis and meets Mickey, the former husband of Hannah, a hipocondriac TV producer. The affairs evolve and at the last Thanksgiving ... 

General:

Complete name                    : Hannah And Her Sisters\Sisters.avi
Format                           : AVI
Format/Info                      : Audio Video Interleave
File size                        : 1 005 MiB
Duration                         : 1h 42mn
Overall bit rate                 : 1371 Kbps

Video:

Format                           : MPEG-4 Visual
Format profile                   : Simple@L3
Format settings, BVOP            : No
Format settings, QPel            : No
Format settings, GMC             : No warppoints
Format settings, Matrix          : Default (H.263)
Codec ID                         : XVID
Codec ID/Hint                    : XviD
Duration                         : 1h 42mn
Bit rate                         : 1168 Kbps
Width                            : 720 pixels
Height                           : 400 pixels
Display aspect ratio             : 16:9
Frame rate                       : 25.000 fps
Color space                      : YUV
Chroma subsampling               : 4:2:0
Bit depth                        : 8 bits
Scan type                        : Progressive
Bits/(Pixel*Frame)               : 0.162
Stream size                      : 857 MiB (85%)
Writing library                  : XviD 1.1.2 (UTC 2006-11-01)

Audio:

Format                           : AC-3
Format/Info                      : Audio Coding 3
Mode extension                   : CM (complete main)
Codec ID                         : 2000
Duration                         : 1h 42mn
Bit rate mode                    : Constant
Bit rate                         : 192 Kbps
Channel(s)                       : 2 channels
Channel positions                : Front: L R
Sampling rate                    : 48.0 KHz
Stream size                      : 141 MiB (14%)
Alignment                        : Aligned on interleaves
Interleave, duration             : 32 ms (0.80 video frame)
Interleave, preload duration     : 32 ms
